<svg width="23" height="23" viewBox="0 0 23 23" fill="none" xmlns="http://www.w3.org/2000/svg">
<path d="M16.117 8.14804L10.2847 12.9153L10.0102 13.1401C9.94994 13.1879 9.91059 13.2572 9.90046 13.3335L9.83904 13.8405L9.67046 15.265C9.67202 15.2823 9.66663 15.2995 9.65548 15.3129C9.64433 15.3263 9.62833 15.3346 9.611 15.3362C9.59367 15.3378 9.57643 15.3324 9.56307 15.3212C9.54972 15.3101 9.54134 15.2941 9.53978 15.2767L9.0654 13.8523L8.57534 12.3952C8.55444 12.3299 8.55711 12.2593 8.5829 12.1958C8.6087 12.1323 8.65597 12.0798 8.71648 12.0476L14.7853 8.56883L15.9275 7.91542C16.0935 7.81872 16.2634 8.02781 16.117 8.14804Z" fill="white" fill-opacity="0.2"/>
<path d="M19.8636 0H3.13636C2.30455 0 1.5068 0.330437 0.91862 0.91862C0.330437 1.5068 0 2.30455 0 3.13636L0 19.8636C0 20.6955 0.330437 21.4932 0.91862 22.0814C1.5068 22.6696 2.30455 23 3.13636 23H19.8636C20.6955 23 21.4932 22.6696 22.0814 22.0814C22.6696 21.4932 23 20.6955 23 19.8636V3.13636C23 2.30455 22.6696 1.5068 22.0814 0.91862C21.4932 0.330437 20.6955 0 19.8636 0V0ZM18.6731 6.65693L16.428 16.577C16.3222 17.0422 15.7315 17.2526 15.3172 16.969L11.9273 14.669L10.201 16.3012C10.1306 16.3673 10.0452 16.4152 9.9521 16.4407C9.85901 16.4663 9.7611 16.4687 9.66685 16.4479C9.5726 16.427 9.48487 16.3835 9.41125 16.321C9.33764 16.2586 9.28038 16.1791 9.24443 16.0895L8.62108 14.26L7.99773 12.4305L4.65619 11.5157C4.56276 11.4953 4.47869 11.4446 4.41705 11.3715C4.3554 11.2984 4.31964 11.2069 4.31531 11.1114C4.31099 11.0159 4.33835 10.9216 4.39315 10.8432C4.44794 10.7648 4.52709 10.7068 4.6183 10.678L17.527 6.02705L17.7649 5.9421C18.2654 5.76699 18.7829 6.1721 18.6731 6.65693Z" fill="white" fill-opacity="0.2"/>
</svg>
